<svg width="176" height="290" viewBox="0 0 176 290" fill="none" xmlns="http://www.w3.org/2000/svg">
<path d="M0 0H42C51.0667 0 56.9333 1.46667 59.6 4.40002C62.5333 7.33334 64 13.4667 64 22.8V289.2H22C12.9333 289.2 6.93334 287.733 4 284.8C1.33333 281.867 0 275.733 0 266.4V0ZM107.2 169.6H152.8C160.8 169.6 166.533 171.867 170 176.4C173.467 180.667 175.2 187.733 175.2 197.6V289.2H121.6C117.333 289.2 113.867 287.733 111.2 284.8C108.533 281.867 107.2 278 107.2 273.2V169.6ZM108.4 0H154.4C162.133 0 167.067 1.46667 169.2 4.40002C171.333 7.33334 172.4 13.4667 172.4 22.8V107.6C172.4 123.6 169.467 135.6 163.6 143.6C158 151.333 146.533 155.2 129.2 155.2H80V117.2H97.6C102.4 117.2 105.333 116.4 106.4 114.8C107.733 112.933 108.4 109.867 108.4 105.6V0Z" fill="url(#paint0_linear_1_7)"/>
<defs>
<linearGradient id="paint0_linear_1_7" x1="239.6" y1="101.7" x2="-28.4" y2="101.7" gradientUnits="userSpaceOnUse">
<stop offset="0.2" stop-color="#12289B"/>
<stop offset="0.795" stop-color="#4F7EC3"/>
<stop offset="0.95" stop-color="#7C95B1"/>
</linearGradient>
</defs>
</svg>
