<svg width="559" height="1387" viewBox="0 0 559 1387" fill="none" xmlns="http://www.w3.org/2000/svg">
  <rect x="193" y="187" width="150" height="68" fill="#FFEA2F" />
  <rect x="193" width="150" height="68" fill="#FFEA2F" />
  <rect y="611" width="150" height="68" fill="#FFEA2F" />
  <rect x="409" y="623" width="150" height="68" fill="#FFEA2F" />
  <rect x="195" y="761" width="150" height="68" fill="#FFEA2F" />
  <rect x="197" y="1133" width="150" height="68" fill="#FFEA2F" />
  <rect x="197" y="1319" width="150" height="68" fill="#FFEA2F" />
  <rect x="197" y="947" width="150" height="68" fill="#FFEA2F" />
  <rect x="196" y="577" width="150" height="68" fill="#FFEA2F" />
  <rect x="196" y="380" width="150" height="68" fill="#FFEA2F" />
  <path d="M267.293 182.707C267.683 183.098 268.317 183.098 268.707 182.707L275.071 176.343C275.462 175.953 275.462 175.319 275.071 174.929C274.681 174.538 274.047 174.538 273.657 174.929L268 180.586L262.343 174.929C261.953 174.538 261.319 174.538 260.929 174.929C260.538 175.319 260.538 175.953 260.929 176.343L267.293 182.707ZM267 73V182H269V73H267Z" fill="black" />
  <path d="M269.287 942.702C269.675 943.095 270.308 943.1 270.702 942.713L277.115 936.398C277.508 936.01 277.513 935.377 277.125 934.984C276.738 934.59 276.105 934.585 275.711 934.973L270.011 940.586L264.398 934.885C264.01 934.492 263.377 934.487 262.984 934.875C262.59 935.262 262.585 935.895 262.973 936.289L269.287 942.702ZM269.873 828.992L269 941.992L271 942.008L271.873 829.008L269.873 828.992Z" fill="black" />
  <path d="M268.287 1128.7C268.675 1129.1 269.308 1129.1 269.702 1128.71L276.115 1122.4C276.508 1122.01 276.513 1121.38 276.125 1120.98C275.738 1120.59 275.105 1120.59 274.711 1120.97L269.011 1126.59L263.398 1120.89C263.01 1120.49 262.377 1120.49 261.984 1120.87C261.59 1121.26 261.585 1121.9 261.973 1122.29L268.287 1128.7ZM268.873 1014.99L268 1127.99L270 1128.01L270.873 1015.01L268.873 1014.99Z" fill="black" />
  <path d="M267.287 1314.7C267.675 1315.1 268.308 1315.1 268.702 1314.71L275.115 1308.4C275.508 1308.01 275.513 1307.38 275.125 1306.98C274.738 1306.59 274.105 1306.59 273.711 1306.97L268.011 1312.59L262.398 1306.89C262.01 1306.49 261.377 1306.49 260.984 1306.87C260.59 1307.26 260.585 1307.9 260.973 1308.29L267.287 1314.7ZM267.873 1200.99L267 1313.99L269 1314.01L269.873 1201.01L267.873 1200.99Z" fill="black" />
  <path d="M74.0051 606.174C73.9492 606.724 74.3492 607.214 74.8987 607.27L83.8523 608.182C84.4018 608.238 84.8926 607.838 84.9485 607.289C85.0045 606.739 84.6044 606.249 84.055 606.193L76.0962 605.382L76.9068 597.423C76.9627 596.874 76.5627 596.383 76.0132 596.327C75.4638 596.271 74.973 596.671 74.917 597.221L74.0051 606.174ZM261.179 453.225L259.622 454.494L260.886 456.044L262.443 454.775L261.179 453.225ZM256.509 457.032L253.395 459.57L254.659 461.12L257.772 458.582L256.509 457.032ZM250.282 462.108L247.168 464.646L248.432 466.196L251.545 463.658L250.282 462.108ZM244.055 467.183L240.941 469.721L242.205 471.272L245.318 468.734L244.055 467.183ZM237.828 472.259L234.714 474.797L235.978 476.347L239.091 473.81L237.828 472.259ZM231.601 477.335L228.487 479.873L229.751 481.423L232.864 478.885L231.601 477.335ZM225.374 482.411L222.26 484.949L223.524 486.499L226.637 483.961L225.374 482.411ZM219.146 487.487L216.033 490.025L217.297 491.575L220.41 489.037L219.146 487.487ZM212.919 492.563L209.806 495.101L211.07 496.651L214.183 494.113L212.919 492.563ZM206.692 497.639L203.579 500.177L204.843 501.727L207.956 499.189L206.692 497.639ZM200.465 502.714L197.352 505.252L198.616 506.803L201.729 504.265L200.465 502.714ZM194.238 507.79L191.125 510.328L192.389 511.878L195.502 509.341L194.238 507.79ZM188.011 512.866L184.898 515.404L186.161 516.954L189.275 514.416L188.011 512.866ZM181.784 517.942L178.671 520.48L179.934 522.03L183.048 519.492L181.784 517.942ZM175.557 523.018L172.444 525.556L173.707 527.106L176.821 524.568L175.557 523.018ZM169.33 528.094L166.217 530.632L167.48 532.182L170.594 529.644L169.33 528.094ZM163.103 533.17L159.99 535.708L161.253 537.258L164.367 534.72L163.103 533.17ZM156.876 538.245L153.763 540.783L155.026 542.334L158.14 539.796L156.876 538.245ZM150.649 543.321L147.536 545.859L148.799 547.409L151.913 544.872L150.649 543.321ZM144.422 548.397L141.309 550.935L142.572 552.485L145.686 549.947L144.422 548.397ZM138.195 553.473L135.082 556.011L136.345 557.561L139.459 555.023L138.195 553.473ZM131.968 558.549L128.855 561.087L130.118 562.637L133.232 560.099L131.968 558.549ZM125.741 563.625L122.628 566.163L123.891 567.713L127.005 565.175L125.741 563.625ZM119.514 568.701L116.401 571.239L117.664 572.789L120.778 570.251L119.514 568.701ZM113.287 573.776L110.173 576.314L111.437 577.865L114.551 575.327L113.287 573.776ZM107.06 578.852L103.946 581.39L105.21 582.94L108.324 580.403L107.06 578.852ZM100.833 583.928L97.7194 586.466L98.9831 588.016L102.097 585.478L100.833 583.928ZM94.6059 589.004L91.4924 591.542L92.7561 593.092L95.8696 590.554L94.6059 589.004ZM88.3789 594.08L85.2654 596.618L86.529 598.168L89.6425 595.63L88.3789 594.08ZM82.1519 599.156L79.0384 601.694L80.302 603.244L83.4155 600.706L82.1519 599.156ZM75.9248 604.232L74.3682 605.5L75.6318 607.051L77.1885 605.782L75.9248 604.232ZM74.0051 606.174C73.9492 606.724 74.3492 607.214 74.8987 607.27L83.8523 608.182C84.4018 608.238 84.8926 607.838 84.9485 607.289C85.0045 606.739 84.6044 606.249 84.055 606.193L76.0962 605.382L76.9068 597.423C76.9627 596.874 76.5627 596.383 76.0132 596.327C75.4638 596.271 74.973 596.671 74.917 597.221L74.0051 606.174ZM261.179 453.225L259.622 454.494L260.886 456.044L262.443 454.775L261.179 453.225ZM256.509 457.032L253.395 459.57L254.659 461.12L257.772 458.582L256.509 457.032ZM250.282 462.108L247.168 464.646L248.432 466.196L251.545 463.658L250.282 462.108ZM244.055 467.183L240.941 469.721L242.205 471.272L245.318 468.734L244.055 467.183ZM237.828 472.259L234.714 474.797L235.978 476.347L239.091 473.81L237.828 472.259ZM231.601 477.335L228.487 479.873L229.751 481.423L232.864 478.885L231.601 477.335ZM225.374 482.411L222.26 484.949L223.524 486.499L226.637 483.961L225.374 482.411ZM219.146 487.487L216.033 490.025L217.297 491.575L220.41 489.037L219.146 487.487ZM212.919 492.563L209.806 495.101L211.07 496.651L214.183 494.113L212.919 492.563ZM206.692 497.639L203.579 500.177L204.843 501.727L207.956 499.189L206.692 497.639ZM200.465 502.714L197.352 505.252L198.616 506.803L201.729 504.265L200.465 502.714ZM194.238 507.79L191.125 510.328L192.389 511.878L195.502 509.341L194.238 507.79ZM188.011 512.866L184.898 515.404L186.161 516.954L189.275 514.416L188.011 512.866ZM181.784 517.942L178.671 520.48L179.934 522.03L183.048 519.492L181.784 517.942ZM175.557 523.018L172.444 525.556L173.707 527.106L176.821 524.568L175.557 523.018ZM169.33 528.094L166.217 530.632L167.48 532.182L170.594 529.644L169.33 528.094ZM163.103 533.17L159.99 535.708L161.253 537.258L164.367 534.72L163.103 533.17ZM156.876 538.245L153.763 540.783L155.026 542.334L158.14 539.796L156.876 538.245ZM150.649 543.321L147.536 545.859L148.799 547.409L151.913 544.872L150.649 543.321ZM144.422 548.397L141.309 550.935L142.572 552.485L145.686 549.947L144.422 548.397ZM138.195 553.473L135.082 556.011L136.345 557.561L139.459 555.023L138.195 553.473ZM131.968 558.549L128.855 561.087L130.118 562.637L133.232 560.099L131.968 558.549ZM125.741 563.625L122.628 566.163L123.891 567.713L127.005 565.175L125.741 563.625ZM119.514 568.701L116.401 571.239L117.664 572.789L120.778 570.251L119.514 568.701ZM113.287 573.776L110.173 576.314L111.437 577.865L114.551 575.327L113.287 573.776ZM107.06 578.852L103.946 581.39L105.21 582.94L108.324 580.403L107.06 578.852ZM100.833 583.928L97.7194 586.466L98.9831 588.016L102.097 585.478L100.833 583.928ZM94.6059 589.004L91.4924 591.542L92.7561 593.092L95.8696 590.554L94.6059 589.004ZM88.3789 594.08L85.2654 596.618L86.529 598.168L89.6425 595.63L88.3789 594.08ZM82.1519 599.156L79.0384 601.694L80.302 603.244L83.4155 600.706L82.1519 599.156ZM75.9248 604.232L74.3682 605.5L75.6318 607.051L77.1885 605.782L75.9248 604.232Z" fill="black" />
  <path d="M456.235 619.436C456.787 619.417 457.219 618.954 457.2 618.402L456.89 609.407C456.871 608.855 456.408 608.423 455.856 608.442C455.304 608.462 454.872 608.924 454.891 609.476L455.167 617.472L447.172 617.748C446.62 617.767 446.188 618.23 446.207 618.782C446.226 619.334 446.689 619.766 447.241 619.747L456.235 619.436ZM279.318 454.731L280.786 456.101L282.151 454.639L280.682 453.269L279.318 454.731ZM283.723 458.842L286.659 461.583L288.024 460.12L285.087 457.38L283.723 458.842ZM289.596 464.323L292.533 467.064L293.897 465.602L290.961 462.861L289.596 464.323ZM295.469 469.804L298.406 472.545L299.771 471.083L296.834 468.342L295.469 469.804ZM301.343 475.286L304.279 478.026L305.644 476.564L302.707 473.823L301.343 475.286ZM307.216 480.767L310.153 483.507L311.517 482.045L308.581 479.305L307.216 480.767ZM313.09 486.248L316.026 488.989L317.391 487.527L314.454 484.786L313.09 486.248ZM318.963 491.729L321.9 494.47L323.264 493.008L320.327 490.267L318.963 491.729ZM324.836 497.211L327.773 499.951L329.137 498.489L326.201 495.748L324.836 497.211ZM330.71 502.692L333.646 505.432L335.011 503.97L332.074 501.23L330.71 502.692ZM336.583 508.173L339.52 510.914L340.884 509.451L337.948 506.711L336.583 508.173ZM342.456 513.654L345.393 516.395L346.758 514.933L343.821 512.192L342.456 513.654ZM348.33 519.135L351.266 521.876L352.631 520.414L349.694 517.673L348.33 519.135ZM354.203 524.617L357.14 527.357L358.504 525.895L355.568 523.154L354.203 524.617ZM360.076 530.098L363.013 532.838L364.378 531.376L361.441 528.636L360.076 530.098ZM365.95 535.579L368.886 538.32L370.251 536.857L367.314 534.117L365.95 535.579ZM371.823 541.06L374.76 543.801L376.124 542.339L373.188 539.598L371.823 541.06ZM377.697 546.542L380.633 549.282L381.998 547.82L379.061 545.079L377.697 546.542ZM383.57 552.023L386.507 554.763L387.871 553.301L384.934 550.561L383.57 552.023ZM389.443 557.504L392.38 560.245L393.745 558.782L390.808 556.042L389.443 557.504ZM395.317 562.985L398.253 565.726L399.618 564.264L396.681 561.523L395.317 562.985ZM401.19 568.466L404.127 571.207L405.491 569.745L402.555 567.004L401.19 568.466ZM407.063 573.948L410 576.688L411.365 575.226L408.428 572.485L407.063 573.948ZM412.937 579.429L415.873 582.169L417.238 580.707L414.301 577.967L412.937 579.429ZM418.81 584.91L421.747 587.651L423.111 586.188L420.175 583.448L418.81 584.91ZM424.683 590.391L427.62 593.132L428.985 591.67L426.048 588.929L424.683 590.391ZM430.557 595.873L433.493 598.613L434.858 597.151L431.921 594.41L430.557 595.873ZM436.43 601.354L439.367 604.094L440.731 602.632L437.795 599.892L436.43 601.354ZM442.304 606.835L445.24 609.576L446.605 608.113L443.668 605.373L442.304 606.835ZM448.177 612.316L451.114 615.057L452.478 613.595L449.541 610.854L448.177 612.316ZM454.05 617.797L455.519 619.168L456.883 617.705L455.415 616.335L454.05 617.797ZM456.235 619.436C456.787 619.417 457.219 618.954 457.2 618.402L456.89 609.407C456.871 608.855 456.408 608.423 455.856 608.442C455.304 608.462 454.872 608.924 454.891 609.476L455.167 617.472L447.172 617.748C446.62 617.767 446.188 618.23 446.207 618.782C446.226 619.334 446.689 619.766 447.241 619.747L456.235 619.436ZM279.318 454.731L280.786 456.101L282.151 454.639L280.682 453.269L279.318 454.731ZM283.723 458.842L286.659 461.583L288.024 460.12L285.087 457.38L283.723 458.842ZM289.596 464.323L292.533 467.064L293.897 465.602L290.961 462.861L289.596 464.323ZM295.469 469.804L298.406 472.545L299.771 471.083L296.834 468.342L295.469 469.804ZM301.343 475.286L304.279 478.026L305.644 476.564L302.707 473.823L301.343 475.286ZM307.216 480.767L310.153 483.507L311.517 482.045L308.581 479.305L307.216 480.767ZM313.09 486.248L316.026 488.989L317.391 487.527L314.454 484.786L313.09 486.248ZM318.963 491.729L321.9 494.47L323.264 493.008L320.327 490.267L318.963 491.729ZM324.836 497.211L327.773 499.951L329.137 498.489L326.201 495.748L324.836 497.211ZM330.71 502.692L333.646 505.432L335.011 503.97L332.074 501.23L330.71 502.692ZM336.583 508.173L339.52 510.914L340.884 509.451L337.948 506.711L336.583 508.173ZM342.456 513.654L345.393 516.395L346.758 514.933L343.821 512.192L342.456 513.654ZM348.33 519.135L351.266 521.876L352.631 520.414L349.694 517.673L348.33 519.135ZM354.203 524.617L357.14 527.357L358.504 525.895L355.568 523.154L354.203 524.617ZM360.076 530.098L363.013 532.838L364.378 531.376L361.441 528.636L360.076 530.098ZM365.95 535.579L368.886 538.32L370.251 536.857L367.314 534.117L365.95 535.579ZM371.823 541.06L374.76 543.801L376.124 542.339L373.188 539.598L371.823 541.06ZM377.697 546.542L380.633 549.282L381.998 547.82L379.061 545.079L377.697 546.542ZM383.57 552.023L386.507 554.763L387.871 553.301L384.934 550.561L383.57 552.023ZM389.443 557.504L392.38 560.245L393.745 558.782L390.808 556.042L389.443 557.504ZM395.317 562.985L398.253 565.726L399.618 564.264L396.681 561.523L395.317 562.985ZM401.19 568.466L404.127 571.207L405.491 569.745L402.555 567.004L401.19 568.466ZM407.063 573.948L410 576.688L411.365 575.226L408.428 572.485L407.063 573.948ZM412.937 579.429L415.873 582.169L417.238 580.707L414.301 577.967L412.937 579.429ZM418.81 584.91L421.747 587.651L423.111 586.188L420.175 583.448L418.81 584.91ZM424.683 590.391L427.62 593.132L428.985 591.67L426.048 588.929L424.683 590.391ZM430.557 595.873L433.493 598.613L434.858 597.151L431.921 594.41L430.557 595.873ZM436.43 601.354L439.367 604.094L440.731 602.632L437.795 599.892L436.43 601.354ZM442.304 606.835L445.24 609.576L446.605 608.113L443.668 605.373L442.304 606.835ZM448.177 612.316L451.114 615.057L452.478 613.595L449.541 610.854L448.177 612.316ZM454.05 617.797L455.519 619.168L456.883 617.705L455.415 616.335L454.05 617.797Z" fill="black" />
  <path d="M269.281 756.567C269.665 756.964 270.298 756.975 270.695 756.591L277.167 750.337C277.564 749.954 277.575 749.321 277.191 748.923C276.807 748.526 276.174 748.515 275.777 748.899L270.024 754.458L264.465 748.705C264.081 748.308 263.448 748.297 263.051 748.681C262.654 749.065 262.643 749.698 263.027 750.095L269.281 756.567ZM270.813 649.983L269 755.855L271 755.889L272.813 650.017L270.813 649.983Z" fill="black" />
  <path d="M270.293 572.707C270.683 573.098 271.317 573.098 271.707 572.707L278.071 566.343C278.462 565.953 278.462 565.319 278.071 564.929C277.681 564.538 277.047 564.538 276.657 564.929L271 570.586L265.343 564.929C264.953 564.538 264.319 564.538 263.929 564.929C263.538 565.319 263.538 565.953 263.929 566.343L270.293 572.707ZM270 448V572H272V448H270Z" fill="black" />
  <path d="M270.335 374.686C270.736 375.066 271.369 375.049 271.749 374.648L277.942 368.118C278.322 367.717 278.305 367.084 277.904 366.704C277.503 366.324 276.87 366.341 276.49 366.741L270.986 372.546L265.181 367.041C264.78 366.661 264.147 366.678 263.767 367.079C263.387 367.48 263.404 368.113 263.804 368.493L270.335 374.686ZM267 260.027L270.023 373.986L272.023 373.933L269 259.973L267 260.027Z" fill="black" />
  <path d="M244.761 41V26.4545H246.523V32.9318H254.278V26.4545H256.04V41H254.278V34.4943H246.523V41H244.761ZM258.771 28.017V26.4545H269.68V28.017H265.106V41H263.344V28.017H258.771ZM272.398 26.4545H274.5L279.444 38.5284H279.614L284.557 26.4545H286.659V41H285.012V29.9489H284.87L280.324 41H278.733L274.188 29.9489H274.046V41H272.398V26.4545ZM290.191 41V26.4545H291.952V39.4375H298.714V41H290.191Z" fill="black" />
  <path d="M209.966 790.017V788.455H220.875V790.017H216.301V803H214.54V790.017H209.966ZM225.092 803.256C224.401 803.256 223.773 803.125 223.21 802.865C222.646 802.6 222.199 802.219 221.868 801.722C221.536 801.22 221.37 800.614 221.37 799.903C221.37 799.278 221.493 798.772 221.74 798.384C221.986 797.991 222.315 797.683 222.727 797.46C223.139 797.238 223.593 797.072 224.091 796.963C224.592 796.849 225.097 796.759 225.603 796.693C226.266 796.608 226.804 796.544 227.216 796.501C227.632 796.454 227.935 796.376 228.125 796.267C228.319 796.158 228.416 795.969 228.416 795.699V795.642C228.416 794.941 228.224 794.397 227.841 794.009C227.462 793.62 226.886 793.426 226.115 793.426C225.315 793.426 224.687 793.601 224.233 793.952C223.778 794.302 223.458 794.676 223.274 795.074L221.683 794.506C221.967 793.843 222.346 793.327 222.819 792.957C223.297 792.583 223.818 792.323 224.382 792.176C224.95 792.025 225.509 791.949 226.058 791.949C226.408 791.949 226.811 791.991 227.265 792.077C227.725 792.157 228.167 792.325 228.593 792.581C229.024 792.837 229.382 793.223 229.666 793.739C229.95 794.255 230.092 794.946 230.092 795.812V803H228.416V801.523H228.331C228.217 801.759 228.028 802.013 227.762 802.283C227.497 802.553 227.145 802.782 226.704 802.972C226.264 803.161 225.726 803.256 225.092 803.256ZM225.348 801.75C226.011 801.75 226.569 801.62 227.024 801.359C227.483 801.099 227.829 800.763 228.061 800.351C228.297 799.939 228.416 799.506 228.416 799.051V797.517C228.345 797.602 228.189 797.68 227.947 797.751C227.71 797.818 227.436 797.877 227.123 797.929C226.815 797.976 226.515 798.019 226.221 798.057C225.932 798.09 225.698 798.118 225.518 798.142C225.083 798.199 224.675 798.291 224.297 798.419C223.922 798.542 223.619 798.729 223.387 798.98C223.16 799.226 223.047 799.562 223.047 799.989C223.047 800.571 223.262 801.011 223.693 801.31C224.128 801.603 224.68 801.75 225.348 801.75ZM233.151 803V792.091H234.827V803H233.151ZM234.004 790.273C233.677 790.273 233.395 790.161 233.158 789.939C232.926 789.716 232.81 789.449 232.81 789.136C232.81 788.824 232.926 788.556 233.158 788.334C233.395 788.111 233.677 788 234.004 788C234.33 788 234.61 788.111 234.842 788.334C235.078 788.556 235.197 788.824 235.197 789.136C235.197 789.449 235.078 789.716 234.842 789.939C234.61 790.161 234.33 790.273 234.004 790.273ZM239.574 788.455V803H237.897V788.455H239.574ZM245.115 803L241.791 792.091H243.553L245.911 800.443H246.024L248.354 792.091H250.143L252.445 800.415H252.558L254.916 792.091H256.678L253.354 803H251.706L249.32 794.619H249.149L246.763 803H245.115ZM258.893 803V792.091H260.57V803H258.893ZM259.746 790.273C259.419 790.273 259.137 790.161 258.901 789.939C258.669 789.716 258.553 789.449 258.553 789.136C258.553 788.824 258.669 788.556 258.901 788.334C259.137 788.111 259.419 788 259.746 788C260.072 788 260.352 788.111 260.584 788.334C260.821 788.556 260.939 788.824 260.939 789.136C260.939 789.449 260.821 789.716 260.584 789.939C260.352 790.161 260.072 790.273 259.746 790.273ZM265.316 796.438V803H263.64V792.091H265.259V793.795H265.401C265.657 793.241 266.045 792.796 266.566 792.46C267.087 792.119 267.759 791.949 268.583 791.949C269.321 791.949 269.968 792.1 270.522 792.403C271.076 792.702 271.507 793.156 271.814 793.767C272.122 794.373 272.276 795.14 272.276 796.068V803H270.6V796.182C270.6 795.325 270.377 794.657 269.932 794.179C269.487 793.696 268.876 793.455 268.1 793.455C267.565 793.455 267.087 793.571 266.665 793.803C266.248 794.035 265.919 794.373 265.678 794.818C265.436 795.263 265.316 795.803 265.316 796.438ZM279.458 803.227C278.549 803.227 277.746 802.998 277.05 802.538C276.354 802.074 275.81 801.421 275.417 800.578C275.024 799.731 274.827 798.729 274.827 797.574C274.827 796.428 275.024 795.434 275.417 794.591C275.81 793.748 276.357 793.097 277.058 792.638C277.758 792.179 278.568 791.949 279.487 791.949C280.197 791.949 280.758 792.067 281.17 792.304C281.586 792.536 281.904 792.801 282.121 793.099C282.344 793.393 282.517 793.634 282.64 793.824H282.782V788.455H284.458V803H282.839V801.324H282.64C282.517 801.523 282.342 801.774 282.114 802.077C281.887 802.375 281.563 802.643 281.141 802.879C280.72 803.111 280.159 803.227 279.458 803.227ZM279.685 801.722C280.358 801.722 280.926 801.546 281.39 801.196C281.854 800.841 282.207 800.351 282.448 799.726C282.69 799.096 282.81 798.369 282.81 797.545C282.81 796.731 282.692 796.018 282.455 795.408C282.219 794.792 281.868 794.314 281.404 793.973C280.94 793.627 280.367 793.455 279.685 793.455C278.975 793.455 278.383 793.637 277.91 794.001C277.441 794.361 277.088 794.851 276.852 795.472C276.62 796.087 276.504 796.778 276.504 797.545C276.504 798.322 276.622 799.027 276.859 799.662C277.1 800.292 277.455 800.794 277.924 801.168C278.397 801.537 278.985 801.722 279.685 801.722ZM305.317 793H303.556C303.452 792.493 303.27 792.048 303.009 791.665C302.754 791.281 302.441 790.959 302.072 790.699C301.707 790.434 301.302 790.235 300.857 790.102C300.412 789.97 299.948 789.903 299.465 789.903C298.585 789.903 297.787 790.126 297.072 790.571C296.362 791.016 295.796 791.672 295.374 792.538C294.958 793.405 294.749 794.468 294.749 795.727C294.749 796.987 294.958 798.05 295.374 798.916C295.796 799.783 296.362 800.438 297.072 800.884C297.787 801.329 298.585 801.551 299.465 801.551C299.948 801.551 300.412 801.485 300.857 801.352C301.302 801.22 301.707 801.023 302.072 800.763C302.441 800.498 302.754 800.173 303.009 799.79C303.27 799.402 303.452 798.956 303.556 798.455H305.317C305.185 799.198 304.943 799.863 304.593 800.45C304.243 801.037 303.807 801.537 303.286 801.949C302.765 802.356 302.181 802.666 301.532 802.879C300.888 803.092 300.199 803.199 299.465 803.199C298.225 803.199 297.121 802.896 296.156 802.29C295.19 801.684 294.43 800.822 293.876 799.705C293.322 798.587 293.045 797.261 293.045 795.727C293.045 794.193 293.322 792.867 293.876 791.75C294.43 790.633 295.19 789.771 296.156 789.165C297.121 788.559 298.225 788.256 299.465 788.256C300.199 788.256 300.888 788.362 301.532 788.575C302.181 788.788 302.765 789.101 303.286 789.513C303.807 789.92 304.243 790.417 304.593 791.004C304.943 791.587 305.185 792.252 305.317 793ZM316.118 792.091C316.033 791.371 315.687 790.812 315.081 790.415C314.475 790.017 313.732 789.818 312.851 789.818C312.207 789.818 311.644 789.922 311.161 790.131C310.683 790.339 310.309 790.625 310.039 790.99C309.774 791.355 309.641 791.769 309.641 792.233C309.641 792.621 309.733 792.955 309.918 793.234C310.107 793.509 310.349 793.739 310.642 793.923C310.936 794.103 311.244 794.252 311.566 794.371C311.888 794.484 312.184 794.577 312.453 794.648L313.931 795.045C314.31 795.145 314.731 795.282 315.195 795.457C315.664 795.633 316.111 795.872 316.537 796.175C316.968 796.473 317.323 796.857 317.603 797.325C317.882 797.794 318.022 798.369 318.022 799.051C318.022 799.837 317.816 800.547 317.404 801.182C316.997 801.816 316.4 802.321 315.614 802.695C314.833 803.069 313.883 803.256 312.766 803.256C311.724 803.256 310.822 803.088 310.06 802.751C309.302 802.415 308.706 801.946 308.27 801.345C307.839 800.744 307.596 800.045 307.539 799.25H309.357C309.404 799.799 309.589 800.254 309.911 800.614C310.238 800.969 310.65 801.234 311.147 801.409C311.649 801.58 312.188 801.665 312.766 801.665C313.438 801.665 314.042 801.556 314.577 801.338C315.112 801.116 315.536 800.808 315.848 800.415C316.161 800.017 316.317 799.553 316.317 799.023C316.317 798.54 316.182 798.147 315.912 797.844C315.642 797.541 315.287 797.295 314.847 797.105C314.407 796.916 313.931 796.75 313.419 796.608L311.63 796.097C310.493 795.77 309.594 795.304 308.931 794.697C308.268 794.091 307.936 793.298 307.936 792.318C307.936 791.504 308.157 790.794 308.597 790.188C309.042 789.577 309.639 789.103 310.387 788.767C311.14 788.426 311.98 788.256 312.908 788.256C313.846 788.256 314.679 788.424 315.408 788.76C316.137 789.091 316.715 789.546 317.141 790.124C317.572 790.701 317.799 791.357 317.823 792.091H316.118ZM328.872 792.091C328.787 791.371 328.441 790.812 327.835 790.415C327.229 790.017 326.486 789.818 325.605 789.818C324.961 789.818 324.398 789.922 323.915 790.131C323.437 790.339 323.063 790.625 322.793 790.99C322.527 791.355 322.395 791.769 322.395 792.233C322.395 792.621 322.487 792.955 322.672 793.234C322.861 793.509 323.103 793.739 323.396 793.923C323.69 794.103 323.998 794.252 324.32 794.371C324.642 794.484 324.938 794.577 325.207 794.648L326.685 795.045C327.063 795.145 327.485 795.282 327.949 795.457C328.418 795.633 328.865 795.872 329.291 796.175C329.722 796.473 330.077 796.857 330.357 797.325C330.636 797.794 330.776 798.369 330.776 799.051C330.776 799.837 330.57 800.547 330.158 801.182C329.75 801.816 329.154 802.321 328.368 802.695C327.587 803.069 326.637 803.256 325.52 803.256C324.478 803.256 323.576 803.088 322.814 802.751C322.056 802.415 321.46 801.946 321.024 801.345C320.593 800.744 320.349 800.045 320.293 799.25H322.111C322.158 799.799 322.343 800.254 322.665 800.614C322.991 800.969 323.403 801.234 323.901 801.409C324.402 801.58 324.942 801.665 325.52 801.665C326.192 801.665 326.796 801.556 327.331 801.338C327.866 801.116 328.29 800.808 328.602 800.415C328.915 800.017 329.071 799.553 329.071 799.023C329.071 798.54 328.936 798.147 328.666 797.844C328.396 797.541 328.041 797.295 327.601 797.105C327.161 796.916 326.685 796.75 326.173 796.608L324.384 796.097C323.247 795.77 322.348 795.304 321.685 794.697C321.022 794.091 320.69 793.298 320.69 792.318C320.69 791.504 320.911 790.794 321.351 790.188C321.796 789.577 322.393 789.103 323.141 788.767C323.893 788.426 324.734 788.256 325.662 788.256C326.599 788.256 327.433 788.424 328.162 788.76C328.891 789.091 329.469 789.546 329.895 790.124C330.326 790.701 330.553 791.357 330.577 792.091H328.872Z" fill="black" />
  <path d="M246.295 971.455V986H244.591L236.665 974.58H236.523V986H234.761V971.455H236.466L244.42 982.903H244.562V971.455H246.295ZM254.025 986.227C253.04 986.227 252.176 985.993 251.432 985.524C250.694 985.055 250.116 984.4 249.699 983.557C249.287 982.714 249.081 981.729 249.081 980.602C249.081 979.466 249.287 978.474 249.699 977.626C250.116 976.779 250.694 976.121 251.432 975.652C252.176 975.183 253.04 974.949 254.025 974.949C255.009 974.949 255.871 975.183 256.61 975.652C257.353 976.121 257.931 976.779 258.343 977.626C258.759 978.474 258.968 979.466 258.968 980.602C258.968 981.729 258.759 982.714 258.343 983.557C257.931 984.4 257.353 985.055 256.61 985.524C255.871 985.993 255.009 986.227 254.025 986.227ZM254.025 984.722C254.773 984.722 255.388 984.53 255.871 984.146C256.354 983.763 256.712 983.259 256.944 982.634C257.176 982.009 257.292 981.331 257.292 980.602C257.292 979.873 257.176 979.194 256.944 978.564C256.712 977.934 256.354 977.425 255.871 977.037C255.388 976.649 254.773 976.455 254.025 976.455C253.276 976.455 252.661 976.649 252.178 977.037C251.695 977.425 251.337 977.934 251.105 978.564C250.873 979.194 250.757 979.873 250.757 980.602C250.757 981.331 250.873 982.009 251.105 982.634C251.337 983.259 251.695 983.763 252.178 984.146C252.661 984.53 253.276 984.722 254.025 984.722ZM265.646 986.227C264.737 986.227 263.934 985.998 263.238 985.538C262.542 985.074 261.997 984.421 261.604 983.578C261.211 982.731 261.015 981.729 261.015 980.574C261.015 979.428 261.211 978.434 261.604 977.591C261.997 976.748 262.544 976.097 263.245 975.638C263.946 975.179 264.755 974.949 265.674 974.949C266.384 974.949 266.945 975.067 267.357 975.304C267.774 975.536 268.091 975.801 268.309 976.099C268.531 976.393 268.704 976.634 268.827 976.824H268.969V971.455H270.646V986H269.026V984.324H268.827C268.704 984.523 268.529 984.774 268.302 985.077C268.075 985.375 267.75 985.643 267.329 985.879C266.907 986.111 266.346 986.227 265.646 986.227ZM265.873 984.722C266.545 984.722 267.113 984.546 267.577 984.196C268.041 983.841 268.394 983.351 268.636 982.726C268.877 982.096 268.998 981.369 268.998 980.545C268.998 979.731 268.879 979.018 268.643 978.408C268.406 977.792 268.056 977.314 267.592 976.973C267.128 976.627 266.555 976.455 265.873 976.455C265.163 976.455 264.571 976.637 264.097 977.001C263.629 977.361 263.276 977.851 263.039 978.472C262.807 979.087 262.691 979.778 262.691 980.545C262.691 981.322 262.809 982.027 263.046 982.662C263.288 983.292 263.643 983.794 264.112 984.168C264.585 984.537 265.172 984.722 265.873 984.722ZM278.522 986.227C277.471 986.227 276.564 985.995 275.802 985.531C275.044 985.062 274.46 984.409 274.048 983.571C273.64 982.728 273.437 981.748 273.437 980.631C273.437 979.513 273.64 978.528 274.048 977.676C274.46 976.819 275.032 976.152 275.766 975.673C276.505 975.19 277.367 974.949 278.352 974.949C278.92 974.949 279.481 975.044 280.035 975.233C280.589 975.422 281.093 975.73 281.548 976.156C282.002 976.578 282.364 977.136 282.634 977.832C282.904 978.528 283.039 979.385 283.039 980.403V981.114H274.63V979.665H281.335C281.335 979.049 281.211 978.5 280.965 978.017C280.724 977.534 280.378 977.153 279.928 976.874C279.483 976.594 278.958 976.455 278.352 976.455C277.684 976.455 277.106 976.62 276.619 976.952C276.136 977.278 275.764 977.705 275.504 978.23C275.243 978.756 275.113 979.319 275.113 979.92V980.886C275.113 981.71 275.255 982.409 275.539 982.982C275.828 983.55 276.228 983.983 276.739 984.281C277.251 984.575 277.845 984.722 278.522 984.722C278.962 984.722 279.36 984.66 279.715 984.537C280.075 984.409 280.385 984.22 280.646 983.969C280.906 983.713 281.107 983.396 281.249 983.017L282.869 983.472C282.698 984.021 282.412 984.504 282.009 984.92C281.607 985.332 281.11 985.654 280.518 985.886C279.926 986.114 279.261 986.227 278.522 986.227ZM297.009 971.455H298.771V981.852C298.771 982.78 298.6 983.569 298.259 984.217C297.918 984.866 297.438 985.358 296.817 985.695C296.197 986.031 295.466 986.199 294.623 986.199C293.827 986.199 293.12 986.054 292.499 985.766C291.879 985.472 291.391 985.055 291.036 984.516C290.681 983.976 290.504 983.334 290.504 982.591H292.237C292.237 983.003 292.338 983.363 292.542 983.67C292.75 983.973 293.034 984.21 293.394 984.381C293.754 984.551 294.164 984.636 294.623 984.636C295.129 984.636 295.56 984.53 295.915 984.317C296.271 984.104 296.54 983.791 296.725 983.379C296.915 982.963 297.009 982.454 297.009 981.852V971.455ZM310.255 975.091C310.17 974.371 309.824 973.812 309.218 973.415C308.612 973.017 307.869 972.818 306.988 972.818C306.344 972.818 305.781 972.922 305.298 973.131C304.819 973.339 304.445 973.625 304.175 973.99C303.91 974.355 303.778 974.769 303.778 975.233C303.778 975.621 303.87 975.955 304.055 976.234C304.244 976.509 304.486 976.739 304.779 976.923C305.073 977.103 305.38 977.252 305.702 977.371C306.024 977.484 306.32 977.577 306.59 977.648L308.067 978.045C308.446 978.145 308.868 978.282 309.332 978.457C309.8 978.633 310.248 978.872 310.674 979.175C311.105 979.473 311.46 979.857 311.739 980.325C312.019 980.794 312.158 981.369 312.158 982.051C312.158 982.837 311.952 983.547 311.54 984.182C311.133 984.816 310.537 985.321 309.751 985.695C308.969 986.069 308.02 986.256 306.903 986.256C305.861 986.256 304.959 986.088 304.197 985.751C303.439 985.415 302.843 984.946 302.407 984.345C301.976 983.744 301.732 983.045 301.675 982.25H303.494C303.541 982.799 303.726 983.254 304.048 983.614C304.374 983.969 304.786 984.234 305.283 984.409C305.785 984.58 306.325 984.665 306.903 984.665C307.575 984.665 308.179 984.556 308.714 984.338C309.249 984.116 309.673 983.808 309.985 983.415C310.298 983.017 310.454 982.553 310.454 982.023C310.454 981.54 310.319 981.147 310.049 980.844C309.779 980.541 309.424 980.295 308.984 980.105C308.543 979.916 308.067 979.75 307.556 979.608L305.766 979.097C304.63 978.77 303.73 978.304 303.067 977.697C302.405 977.091 302.073 976.298 302.073 975.318C302.073 974.504 302.293 973.794 302.734 973.188C303.179 972.577 303.775 972.103 304.523 971.767C305.276 971.426 306.117 971.256 307.045 971.256C307.982 971.256 308.816 971.424 309.545 971.76C310.274 972.091 310.852 972.546 311.278 973.124C311.709 973.701 311.936 974.357 311.96 975.091H310.255Z" fill="black" />
  <path d="M221.761 1174V1159.45H230.54V1161.02H223.523V1165.93H230.085V1167.49H223.523V1172.44H230.653V1174H221.761ZM234.737 1163.09L237.351 1167.55L239.964 1163.09H241.896L238.374 1168.55L241.896 1174H239.964L237.351 1169.77L234.737 1174H232.805L236.271 1168.55L232.805 1163.09H234.737ZM244.288 1178.09V1163.09H245.907V1164.82H246.106C246.229 1164.63 246.4 1164.39 246.618 1164.1C246.84 1163.8 247.157 1163.54 247.569 1163.3C247.986 1163.07 248.549 1162.95 249.26 1162.95C250.178 1162.95 250.988 1163.18 251.689 1163.64C252.389 1164.1 252.936 1164.75 253.329 1165.59C253.722 1166.43 253.919 1167.43 253.919 1168.57C253.919 1169.73 253.722 1170.73 253.329 1171.58C252.936 1172.42 252.392 1173.07 251.696 1173.54C251 1174 250.197 1174.23 249.288 1174.23C248.587 1174.23 248.026 1174.11 247.605 1173.88C247.183 1173.64 246.859 1173.37 246.632 1173.08C246.404 1172.77 246.229 1172.52 246.106 1172.32H245.964V1178.09H244.288ZM245.936 1168.55C245.936 1169.37 246.056 1170.1 246.298 1170.73C246.539 1171.35 246.892 1171.84 247.356 1172.2C247.82 1172.55 248.388 1172.72 249.061 1172.72C249.761 1172.72 250.346 1172.54 250.815 1172.17C251.288 1171.79 251.644 1171.29 251.88 1170.66C252.122 1170.03 252.243 1169.32 252.243 1168.55C252.243 1167.78 252.124 1167.09 251.887 1166.47C251.655 1165.85 251.303 1165.36 250.829 1165C250.36 1164.64 249.771 1164.45 249.061 1164.45C248.379 1164.45 247.806 1164.63 247.342 1164.97C246.878 1165.31 246.528 1165.79 246.291 1166.41C246.054 1167.02 245.936 1167.73 245.936 1168.55ZM256.475 1174V1163.09H258.095V1164.74H258.208C258.407 1164.2 258.767 1163.76 259.288 1163.42C259.809 1163.09 260.396 1162.92 261.049 1162.92C261.172 1162.92 261.326 1162.92 261.511 1162.93C261.696 1162.93 261.835 1162.94 261.93 1162.95V1164.65C261.873 1164.64 261.743 1164.62 261.539 1164.59C261.341 1164.56 261.13 1164.54 260.907 1164.54C260.377 1164.54 259.904 1164.65 259.487 1164.87C259.075 1165.09 258.748 1165.39 258.507 1165.78C258.27 1166.17 258.152 1166.6 258.152 1167.1V1174H256.475ZM268.159 1174.23C267.108 1174.23 266.201 1174 265.439 1173.53C264.681 1173.06 264.096 1172.41 263.684 1171.57C263.277 1170.73 263.074 1169.75 263.074 1168.63C263.074 1167.51 263.277 1166.53 263.684 1165.68C264.096 1164.82 264.669 1164.15 265.403 1163.67C266.142 1163.19 267.003 1162.95 267.988 1162.95C268.556 1162.95 269.118 1163.04 269.672 1163.23C270.225 1163.42 270.73 1163.73 271.184 1164.16C271.639 1164.58 272.001 1165.14 272.271 1165.83C272.541 1166.53 272.676 1167.39 272.676 1168.4V1169.11H264.267V1167.66H270.971C270.971 1167.05 270.848 1166.5 270.602 1166.02C270.36 1165.53 270.015 1165.15 269.565 1164.87C269.12 1164.59 268.594 1164.45 267.988 1164.45C267.321 1164.45 266.743 1164.62 266.255 1164.95C265.772 1165.28 265.401 1165.7 265.14 1166.23C264.88 1166.76 264.75 1167.32 264.75 1167.92V1168.89C264.75 1169.71 264.892 1170.41 265.176 1170.98C265.465 1171.55 265.865 1171.98 266.376 1172.28C266.887 1172.57 267.482 1172.72 268.159 1172.72C268.599 1172.72 268.997 1172.66 269.352 1172.54C269.712 1172.41 270.022 1172.22 270.282 1171.97C270.543 1171.71 270.744 1171.4 270.886 1171.02L272.505 1171.47C272.335 1172.02 272.048 1172.5 271.646 1172.92C271.243 1173.33 270.746 1173.65 270.154 1173.89C269.563 1174.11 268.897 1174.23 268.159 1174.23ZM282.953 1165.53L281.447 1165.96C281.352 1165.71 281.213 1165.47 281.028 1165.23C280.848 1164.99 280.602 1164.79 280.289 1164.63C279.977 1164.48 279.577 1164.4 279.089 1164.4C278.422 1164.4 277.865 1164.55 277.42 1164.86C276.98 1165.16 276.76 1165.55 276.76 1166.02C276.76 1166.43 276.911 1166.76 277.214 1167C277.517 1167.25 277.991 1167.45 278.635 1167.61L280.254 1168.01C281.229 1168.24 281.956 1168.6 282.434 1169.09C282.913 1169.58 283.152 1170.2 283.152 1170.96C283.152 1171.59 282.972 1172.14 282.612 1172.64C282.257 1173.13 281.76 1173.52 281.12 1173.8C280.481 1174.09 279.738 1174.23 278.89 1174.23C277.778 1174.23 276.857 1173.99 276.127 1173.5C275.398 1173.02 274.937 1172.31 274.743 1171.39L276.333 1170.99C276.485 1171.58 276.771 1172.02 277.193 1172.31C277.619 1172.6 278.175 1172.75 278.862 1172.75C279.643 1172.75 280.263 1172.58 280.723 1172.25C281.187 1171.92 281.419 1171.51 281.419 1171.05C281.419 1170.67 281.286 1170.35 281.021 1170.09C280.756 1169.83 280.349 1169.64 279.799 1169.51L277.981 1169.09C276.982 1168.85 276.248 1168.48 275.779 1167.98C275.315 1167.48 275.083 1166.86 275.083 1166.1C275.083 1165.49 275.256 1164.94 275.602 1164.47C275.952 1164 276.428 1163.62 277.029 1163.35C277.636 1163.08 278.322 1162.95 279.089 1162.95C280.169 1162.95 281.016 1163.19 281.632 1163.66C282.252 1164.13 282.692 1164.76 282.953 1165.53ZM293.402 1165.53L291.896 1165.96C291.802 1165.71 291.662 1165.47 291.477 1165.23C291.297 1164.99 291.051 1164.79 290.739 1164.63C290.426 1164.48 290.026 1164.4 289.538 1164.4C288.871 1164.4 288.314 1164.55 287.869 1164.86C287.429 1165.16 287.209 1165.55 287.209 1166.02C287.209 1166.43 287.36 1166.76 287.663 1167C287.966 1167.25 288.44 1167.45 289.084 1167.61L290.703 1168.01C291.679 1168.24 292.405 1168.6 292.884 1169.09C293.362 1169.58 293.601 1170.2 293.601 1170.96C293.601 1171.59 293.421 1172.14 293.061 1172.64C292.706 1173.13 292.209 1173.52 291.57 1173.8C290.93 1174.09 290.187 1174.23 289.339 1174.23C288.227 1174.23 287.306 1173.99 286.577 1173.5C285.848 1173.02 285.386 1172.31 285.192 1171.39L286.783 1170.99C286.934 1171.58 287.221 1172.02 287.642 1172.31C288.068 1172.6 288.625 1172.75 289.311 1172.75C290.092 1172.75 290.713 1172.58 291.172 1172.25C291.636 1171.92 291.868 1171.51 291.868 1171.05C291.868 1170.67 291.735 1170.35 291.47 1170.09C291.205 1169.83 290.798 1169.64 290.249 1169.51L288.43 1169.09C287.431 1168.85 286.697 1168.48 286.229 1167.98C285.765 1167.48 285.533 1166.86 285.533 1166.1C285.533 1165.49 285.705 1164.94 286.051 1164.47C286.402 1164 286.877 1163.62 287.479 1163.35C288.085 1163.08 288.771 1162.95 289.538 1162.95C290.618 1162.95 291.465 1163.19 292.081 1163.66C292.701 1164.13 293.142 1164.76 293.402 1165.53ZM307.544 1159.45H309.306V1169.85C309.306 1170.78 309.135 1171.57 308.794 1172.22C308.453 1172.87 307.973 1173.36 307.353 1173.69C306.732 1174.03 306.001 1174.2 305.158 1174.2C304.363 1174.2 303.655 1174.05 303.034 1173.77C302.414 1173.47 301.926 1173.06 301.571 1172.52C301.216 1171.98 301.039 1171.33 301.039 1170.59H302.772C302.772 1171 302.873 1171.36 303.077 1171.67C303.285 1171.97 303.569 1172.21 303.929 1172.38C304.289 1172.55 304.699 1172.64 305.158 1172.64C305.665 1172.64 306.096 1172.53 306.451 1172.32C306.806 1172.1 307.076 1171.79 307.26 1171.38C307.45 1170.96 307.544 1170.45 307.544 1169.85V1159.45ZM320.79 1163.09C320.705 1162.37 320.359 1161.81 319.753 1161.41C319.147 1161.02 318.404 1160.82 317.523 1160.82C316.879 1160.82 316.316 1160.92 315.833 1161.13C315.355 1161.34 314.98 1161.63 314.711 1161.99C314.445 1162.35 314.313 1162.77 314.313 1163.23C314.313 1163.62 314.405 1163.96 314.59 1164.23C314.779 1164.51 315.021 1164.74 315.314 1164.92C315.608 1165.1 315.916 1165.25 316.238 1165.37C316.56 1165.48 316.855 1165.58 317.125 1165.65L318.603 1166.05C318.981 1166.14 319.403 1166.28 319.867 1166.46C320.336 1166.63 320.783 1166.87 321.209 1167.17C321.64 1167.47 321.995 1167.86 322.275 1168.33C322.554 1168.79 322.694 1169.37 322.694 1170.05C322.694 1170.84 322.488 1171.55 322.076 1172.18C321.668 1172.82 321.072 1173.32 320.286 1173.69C319.505 1174.07 318.555 1174.26 317.438 1174.26C316.396 1174.26 315.494 1174.09 314.732 1173.75C313.974 1173.42 313.378 1172.95 312.942 1172.35C312.511 1171.74 312.267 1171.05 312.211 1170.25H314.029C314.076 1170.8 314.261 1171.25 314.583 1171.61C314.909 1171.97 315.321 1172.23 315.819 1172.41C316.32 1172.58 316.86 1172.66 317.438 1172.66C318.11 1172.66 318.714 1172.56 319.249 1172.34C319.784 1172.12 320.208 1171.81 320.52 1171.41C320.833 1171.02 320.989 1170.55 320.989 1170.02C320.989 1169.54 320.854 1169.15 320.584 1168.84C320.314 1168.54 319.959 1168.29 319.519 1168.11C319.078 1167.92 318.603 1167.75 318.091 1167.61L316.301 1167.1C315.165 1166.77 314.266 1166.3 313.603 1165.7C312.94 1165.09 312.608 1164.3 312.608 1163.32C312.608 1162.5 312.828 1161.79 313.269 1161.19C313.714 1160.58 314.31 1160.1 315.059 1159.77C315.811 1159.43 316.652 1159.26 317.58 1159.26C318.517 1159.26 319.351 1159.42 320.08 1159.76C320.809 1160.09 321.387 1160.55 321.813 1161.12C322.244 1161.7 322.471 1162.36 322.495 1163.09H320.79Z" fill="black" />
  <path d="M221.761 1345.45H223.864L228.807 1357.53H228.977L233.92 1345.45H236.023V1360H234.375V1348.95H234.233L229.688 1360H228.097L223.551 1348.95H223.409V1360H221.761V1345.45ZM243.759 1360.23C242.774 1360.23 241.91 1359.99 241.167 1359.52C240.428 1359.06 239.85 1358.4 239.434 1357.56C239.022 1356.71 238.816 1355.73 238.816 1354.6C238.816 1353.47 239.022 1352.47 239.434 1351.63C239.85 1350.78 240.428 1350.12 241.167 1349.65C241.91 1349.18 242.774 1348.95 243.759 1348.95C244.744 1348.95 245.605 1349.18 246.344 1349.65C247.087 1350.12 247.665 1350.78 248.077 1351.63C248.494 1352.47 248.702 1353.47 248.702 1354.6C248.702 1355.73 248.494 1356.71 248.077 1357.56C247.665 1358.4 247.087 1359.06 246.344 1359.52C245.605 1359.99 244.744 1360.23 243.759 1360.23ZM243.759 1358.72C244.507 1358.72 245.123 1358.53 245.605 1358.15C246.088 1357.76 246.446 1357.26 246.678 1356.63C246.91 1356.01 247.026 1355.33 247.026 1354.6C247.026 1353.87 246.91 1353.19 246.678 1352.56C246.446 1351.93 246.088 1351.43 245.605 1351.04C245.123 1350.65 244.507 1350.45 243.759 1350.45C243.011 1350.45 242.395 1350.65 241.912 1351.04C241.429 1351.43 241.072 1351.93 240.84 1352.56C240.608 1353.19 240.492 1353.87 240.492 1354.6C240.492 1355.33 240.608 1356.01 240.84 1356.63C241.072 1357.26 241.429 1357.76 241.912 1358.15C242.395 1358.53 243.011 1358.72 243.759 1358.72ZM252.937 1353.44V1360H251.261V1349.09H252.88V1350.8H253.022C253.278 1350.24 253.666 1349.8 254.187 1349.46C254.708 1349.12 255.38 1348.95 256.204 1348.95C256.942 1348.95 257.589 1349.1 258.143 1349.4C258.697 1349.7 259.128 1350.16 259.435 1350.77C259.743 1351.37 259.897 1352.14 259.897 1353.07V1360H258.221V1353.18C258.221 1352.32 257.998 1351.66 257.553 1351.18C257.108 1350.7 256.497 1350.45 255.721 1350.45C255.186 1350.45 254.708 1350.57 254.286 1350.8C253.87 1351.03 253.54 1351.37 253.299 1351.82C253.058 1352.26 252.937 1352.8 252.937 1353.44ZM267.363 1364.32C266.554 1364.32 265.858 1364.21 265.275 1364.01C264.693 1363.8 264.208 1363.53 263.819 1363.2C263.436 1362.86 263.13 1362.51 262.903 1362.13L264.238 1361.19C264.39 1361.39 264.582 1361.62 264.814 1361.88C265.046 1362.14 265.363 1362.36 265.765 1362.55C266.172 1362.74 266.705 1362.84 267.363 1362.84C268.244 1362.84 268.971 1362.63 269.544 1362.2C270.117 1361.78 270.403 1361.11 270.403 1360.2V1357.98H270.261C270.138 1358.18 269.963 1358.43 269.735 1358.72C269.513 1359.01 269.191 1359.27 268.77 1359.5C268.353 1359.72 267.789 1359.83 267.079 1359.83C266.199 1359.83 265.408 1359.62 264.707 1359.2C264.011 1358.79 263.459 1358.18 263.052 1357.39C262.65 1356.59 262.449 1355.62 262.449 1354.49C262.449 1353.37 262.645 1352.4 263.038 1351.57C263.431 1350.74 263.978 1350.09 264.679 1349.64C265.379 1349.18 266.189 1348.95 267.108 1348.95C267.818 1348.95 268.381 1349.07 268.798 1349.3C269.219 1349.54 269.541 1349.8 269.764 1350.1C269.991 1350.39 270.166 1350.63 270.289 1350.82H270.46V1349.09H272.079V1360.31C272.079 1361.25 271.866 1362.01 271.44 1362.6C271.019 1363.19 270.45 1363.62 269.735 1363.9C269.025 1364.18 268.234 1364.32 267.363 1364.32ZM267.306 1358.32C267.979 1358.32 268.547 1358.17 269.011 1357.86C269.475 1357.55 269.828 1357.11 270.069 1356.53C270.311 1355.96 270.431 1355.27 270.431 1354.46C270.431 1353.67 270.313 1352.98 270.076 1352.38C269.84 1351.78 269.489 1351.31 269.025 1350.97C268.561 1350.62 267.988 1350.45 267.306 1350.45C266.596 1350.45 266.004 1350.63 265.531 1350.99C265.062 1351.35 264.709 1351.84 264.473 1352.44C264.241 1353.05 264.125 1353.72 264.125 1354.46C264.125 1355.22 264.243 1355.89 264.48 1356.47C264.721 1357.05 265.076 1357.5 265.545 1357.83C266.019 1358.16 266.606 1358.32 267.306 1358.32ZM279.579 1360.23C278.594 1360.23 277.73 1359.99 276.987 1359.52C276.248 1359.06 275.671 1358.4 275.254 1357.56C274.842 1356.71 274.636 1355.73 274.636 1354.6C274.636 1353.47 274.842 1352.47 275.254 1351.63C275.671 1350.78 276.248 1350.12 276.987 1349.65C277.73 1349.18 278.594 1348.95 279.579 1348.95C280.564 1348.95 281.426 1349.18 282.164 1349.65C282.908 1350.12 283.485 1350.78 283.897 1351.63C284.314 1352.47 284.522 1353.47 284.522 1354.6C284.522 1355.73 284.314 1356.71 283.897 1357.56C283.485 1358.4 282.908 1359.06 282.164 1359.52C281.426 1359.99 280.564 1360.23 279.579 1360.23ZM279.579 1358.72C280.327 1358.72 280.943 1358.53 281.426 1358.15C281.909 1357.76 282.266 1357.26 282.498 1356.63C282.73 1356.01 282.846 1355.33 282.846 1354.6C282.846 1353.87 282.73 1353.19 282.498 1352.56C282.266 1351.93 281.909 1351.43 281.426 1351.04C280.943 1350.65 280.327 1350.45 279.579 1350.45C278.831 1350.45 278.216 1350.65 277.733 1351.04C277.25 1351.43 276.892 1351.93 276.66 1352.56C276.428 1353.19 276.312 1353.87 276.312 1354.6C276.312 1355.33 276.428 1356.01 276.66 1356.63C276.892 1357.26 277.25 1357.76 277.733 1358.15C278.216 1358.53 278.831 1358.72 279.579 1358.72ZM291.797 1360H287.308V1345.45H291.996C293.407 1345.45 294.614 1345.75 295.618 1346.33C296.622 1346.91 297.391 1347.74 297.926 1348.82C298.461 1349.9 298.729 1351.19 298.729 1352.7C298.729 1354.21 298.459 1355.52 297.919 1356.61C297.379 1357.7 296.593 1358.54 295.561 1359.13C294.529 1359.71 293.274 1360 291.797 1360ZM289.07 1358.44H291.683C292.886 1358.44 293.883 1358.21 294.673 1357.74C295.464 1357.28 296.054 1356.62 296.442 1355.76C296.83 1354.9 297.024 1353.88 297.024 1352.7C297.024 1351.52 296.832 1350.51 296.449 1349.67C296.065 1348.81 295.492 1348.16 294.73 1347.71C293.968 1347.25 293.018 1347.02 291.882 1347.02H289.07V1358.44ZM301.683 1360V1345.45H306.768C307.782 1345.45 308.617 1345.63 309.276 1345.98C309.934 1346.33 310.424 1346.79 310.746 1347.38C311.068 1347.96 311.229 1348.61 311.229 1349.32C311.229 1349.94 311.117 1350.46 310.895 1350.87C310.677 1351.27 310.388 1351.6 310.028 1351.83C309.673 1352.07 309.287 1352.24 308.871 1352.36V1352.5C309.316 1352.53 309.763 1352.68 310.213 1352.97C310.663 1353.25 311.039 1353.66 311.342 1354.19C311.645 1354.72 311.797 1355.37 311.797 1356.14C311.797 1356.87 311.631 1357.52 311.3 1358.1C310.968 1358.69 310.445 1359.15 309.73 1359.49C309.015 1359.83 308.085 1360 306.939 1360H301.683ZM303.445 1358.44H306.939C308.089 1358.44 308.906 1358.21 309.389 1357.77C309.877 1357.32 310.121 1356.78 310.121 1356.14C310.121 1355.64 309.995 1355.19 309.744 1354.77C309.493 1354.35 309.136 1354.02 308.672 1353.76C308.208 1353.51 307.659 1353.38 307.024 1353.38H303.445V1358.44ZM303.445 1351.85H306.712C307.242 1351.85 307.72 1351.74 308.146 1351.53C308.577 1351.33 308.918 1351.03 309.169 1350.65C309.425 1350.27 309.553 1349.83 309.553 1349.32C309.553 1348.68 309.33 1348.14 308.885 1347.69C308.44 1347.24 307.734 1347.02 306.768 1347.02H303.445V1351.85Z" fill="black" />
  <path d="M230.761 618V603.455H235.676C236.813 603.455 237.745 603.649 238.474 604.037C239.204 604.42 239.743 604.948 240.094 605.621C240.444 606.293 240.619 607.058 240.619 607.915C240.619 608.772 240.444 609.532 240.094 610.195C239.743 610.857 239.206 611.378 238.482 611.757C237.757 612.131 236.831 612.318 235.705 612.318H231.727V610.727H235.648C236.424 610.727 237.049 610.614 237.523 610.386C238.001 610.159 238.347 609.837 238.56 609.42C238.777 608.999 238.886 608.497 238.886 607.915C238.886 607.332 238.777 606.823 238.56 606.388C238.342 605.952 237.994 605.616 237.516 605.379C237.037 605.138 236.405 605.017 235.619 605.017H232.523V618H230.761ZM237.608 611.466L241.188 618H239.142L235.619 611.466H237.608ZM247.784 618.227C246.733 618.227 245.826 617.995 245.064 617.531C244.306 617.062 243.721 616.409 243.309 615.571C242.902 614.728 242.699 613.748 242.699 612.631C242.699 611.513 242.902 610.528 243.309 609.676C243.721 608.819 244.294 608.152 245.028 607.673C245.767 607.19 246.628 606.949 247.613 606.949C248.181 606.949 248.743 607.044 249.297 607.233C249.85 607.422 250.355 607.73 250.809 608.156C251.264 608.578 251.626 609.136 251.896 609.832C252.166 610.528 252.301 611.385 252.301 612.403V613.114H243.892V611.665H250.596C250.596 611.049 250.473 610.5 250.227 610.017C249.985 609.534 249.64 609.153 249.19 608.874C248.745 608.594 248.219 608.455 247.613 608.455C246.946 608.455 246.368 608.62 245.88 608.952C245.397 609.278 245.026 609.705 244.765 610.23C244.505 610.756 244.375 611.319 244.375 611.92V612.886C244.375 613.71 244.517 614.409 244.801 614.982C245.09 615.55 245.49 615.983 246.001 616.281C246.512 616.575 247.107 616.722 247.784 616.722C248.224 616.722 248.622 616.66 248.977 616.537C249.337 616.409 249.647 616.22 249.907 615.969C250.168 615.713 250.369 615.396 250.511 615.017L252.13 615.472C251.96 616.021 251.673 616.504 251.271 616.92C250.868 617.332 250.371 617.654 249.779 617.886C249.188 618.114 248.522 618.227 247.784 618.227ZM258.061 618.256C257.369 618.256 256.742 618.125 256.179 617.865C255.615 617.6 255.168 617.219 254.836 616.722C254.505 616.22 254.339 615.614 254.339 614.903C254.339 614.278 254.462 613.772 254.708 613.384C254.955 612.991 255.284 612.683 255.696 612.46C256.108 612.238 256.562 612.072 257.059 611.963C257.561 611.849 258.065 611.759 258.572 611.693C259.235 611.608 259.772 611.544 260.184 611.501C260.601 611.454 260.904 611.376 261.093 611.267C261.288 611.158 261.385 610.969 261.385 610.699V610.642C261.385 609.941 261.193 609.397 260.809 609.009C260.431 608.62 259.855 608.426 259.083 608.426C258.283 608.426 257.656 608.601 257.201 608.952C256.747 609.302 256.427 609.676 256.243 610.074L254.652 609.506C254.936 608.843 255.315 608.327 255.788 607.957C256.266 607.583 256.787 607.323 257.35 607.176C257.919 607.025 258.477 606.949 259.027 606.949C259.377 606.949 259.779 606.991 260.234 607.077C260.693 607.157 261.136 607.325 261.562 607.581C261.993 607.837 262.35 608.223 262.635 608.739C262.919 609.255 263.061 609.946 263.061 610.812V618H261.385V616.523H261.299C261.186 616.759 260.996 617.013 260.731 617.283C260.466 617.553 260.113 617.782 259.673 617.972C259.233 618.161 258.695 618.256 258.061 618.256ZM258.316 616.75C258.979 616.75 259.538 616.62 259.993 616.359C260.452 616.099 260.797 615.763 261.029 615.351C261.266 614.939 261.385 614.506 261.385 614.051V612.517C261.314 612.602 261.157 612.68 260.916 612.751C260.679 612.818 260.404 612.877 260.092 612.929C259.784 612.976 259.484 613.019 259.19 613.057C258.901 613.09 258.667 613.118 258.487 613.142C258.051 613.199 257.644 613.291 257.265 613.419C256.891 613.542 256.588 613.729 256.356 613.98C256.129 614.226 256.015 614.562 256.015 614.989C256.015 615.571 256.231 616.011 256.662 616.31C257.097 616.603 257.649 616.75 258.316 616.75ZM270.552 618.227C269.529 618.227 268.648 617.986 267.91 617.503C267.171 617.02 266.603 616.355 266.205 615.507C265.808 614.66 265.609 613.691 265.609 612.602C265.609 611.494 265.812 610.517 266.219 609.669C266.631 608.817 267.204 608.152 267.938 607.673C268.677 607.19 269.539 606.949 270.523 606.949C271.29 606.949 271.982 607.091 272.597 607.375C273.213 607.659 273.717 608.057 274.11 608.568C274.503 609.08 274.747 609.676 274.842 610.358H273.165C273.038 609.861 272.754 609.42 272.313 609.037C271.878 608.649 271.29 608.455 270.552 608.455C269.898 608.455 269.326 608.625 268.833 608.966C268.345 609.302 267.964 609.778 267.69 610.393C267.42 611.004 267.285 611.722 267.285 612.545C267.285 613.388 267.417 614.122 267.683 614.747C267.952 615.372 268.331 615.857 268.819 616.203C269.311 616.549 269.889 616.722 270.552 616.722C270.987 616.722 271.383 616.646 271.738 616.494C272.093 616.343 272.394 616.125 272.64 615.841C272.886 615.557 273.061 615.216 273.165 614.818H274.842C274.747 615.462 274.513 616.042 274.138 616.558C273.769 617.07 273.279 617.477 272.668 617.78C272.062 618.078 271.357 618.227 270.552 618.227ZM282.036 607.091V608.511H276.383V607.091H282.036ZM278.031 604.477H279.707V614.875C279.707 615.348 279.775 615.704 279.913 615.94C280.055 616.172 280.235 616.329 280.452 616.409C280.675 616.485 280.909 616.523 281.156 616.523C281.34 616.523 281.492 616.513 281.61 616.494C281.728 616.471 281.823 616.452 281.894 616.438L282.235 617.943C282.121 617.986 281.963 618.028 281.759 618.071C281.556 618.118 281.298 618.142 280.985 618.142C280.512 618.142 280.048 618.04 279.593 617.837C279.143 617.633 278.769 617.323 278.471 616.906C278.177 616.49 278.031 615.964 278.031 615.33V604.477ZM295.978 603.455H297.739V613.852C297.739 614.78 297.569 615.569 297.228 616.217C296.887 616.866 296.406 617.358 295.786 617.695C295.166 618.031 294.434 618.199 293.592 618.199C292.796 618.199 292.088 618.054 291.468 617.766C290.848 617.472 290.36 617.055 290.005 616.516C289.65 615.976 289.472 615.334 289.472 614.591H291.205C291.205 615.003 291.307 615.363 291.511 615.67C291.719 615.973 292.003 616.21 292.363 616.381C292.723 616.551 293.132 616.636 293.592 616.636C294.098 616.636 294.529 616.53 294.884 616.317C295.239 616.104 295.509 615.791 295.694 615.379C295.883 614.963 295.978 614.454 295.978 613.852V603.455ZM309.224 607.091C309.138 606.371 308.793 605.812 308.187 605.415C307.581 605.017 306.837 604.818 305.957 604.818C305.313 604.818 304.749 604.922 304.266 605.131C303.788 605.339 303.414 605.625 303.144 605.99C302.879 606.355 302.746 606.769 302.746 607.233C302.746 607.621 302.839 607.955 303.023 608.234C303.213 608.509 303.454 608.739 303.748 608.923C304.041 609.103 304.349 609.252 304.671 609.371C304.993 609.484 305.289 609.577 305.559 609.648L307.036 610.045C307.415 610.145 307.836 610.282 308.3 610.457C308.769 610.633 309.217 610.872 309.643 611.175C310.074 611.473 310.429 611.857 310.708 612.325C310.987 612.794 311.127 613.369 311.127 614.051C311.127 614.837 310.921 615.547 310.509 616.182C310.102 616.816 309.505 617.321 308.719 617.695C307.938 618.069 306.989 618.256 305.871 618.256C304.83 618.256 303.928 618.088 303.165 617.751C302.408 617.415 301.811 616.946 301.376 616.345C300.945 615.744 300.701 615.045 300.644 614.25H302.462C302.51 614.799 302.694 615.254 303.016 615.614C303.343 615.969 303.755 616.234 304.252 616.409C304.754 616.58 305.294 616.665 305.871 616.665C306.544 616.665 307.147 616.556 307.683 616.338C308.218 616.116 308.641 615.808 308.954 615.415C309.266 615.017 309.423 614.553 309.423 614.023C309.423 613.54 309.288 613.147 309.018 612.844C308.748 612.541 308.393 612.295 307.952 612.105C307.512 611.916 307.036 611.75 306.525 611.608L304.735 611.097C303.599 610.77 302.699 610.304 302.036 609.697C301.373 609.091 301.042 608.298 301.042 607.318C301.042 606.504 301.262 605.794 301.702 605.188C302.147 604.577 302.744 604.103 303.492 603.767C304.245 603.426 305.085 603.256 306.013 603.256C306.951 603.256 307.784 603.424 308.513 603.76C309.243 604.091 309.82 604.546 310.246 605.124C310.677 605.701 310.905 606.357 310.928 607.091H309.224Z" fill="black" />
  <path d="M35.358 652H33.5114L38.8523 637.455H40.6705L46.0114 652H44.1648L39.8182 639.756H39.7045L35.358 652ZM36.0398 646.318H43.483V647.881H36.0398V646.318ZM49.7259 645.438V652H48.0497V641.091H49.669V642.795H49.8111C50.0668 642.241 50.455 641.796 50.9759 641.46C51.4967 641.119 52.169 640.949 52.9929 640.949C53.7315 640.949 54.3778 641.1 54.9318 641.403C55.4858 641.702 55.9167 642.156 56.2244 642.767C56.5322 643.373 56.6861 644.14 56.6861 645.068V652H55.0099V645.182C55.0099 644.325 54.7874 643.657 54.3423 643.179C53.8973 642.696 53.2865 642.455 52.5099 642.455C51.9749 642.455 51.4967 642.571 51.0753 642.803C50.6586 643.035 50.3295 643.373 50.0881 643.818C49.8466 644.263 49.7259 644.803 49.7259 645.438ZM64.1523 656.318C63.3427 656.318 62.6467 656.214 62.0643 656.006C61.4819 655.802 60.9966 655.532 60.6083 655.196C60.2248 654.865 59.9194 654.509 59.6921 654.131L61.0273 653.193C61.1789 653.392 61.3706 653.619 61.6026 653.875C61.8346 654.135 62.1519 654.36 62.5543 654.55C62.9615 654.744 63.4942 654.841 64.1523 654.841C65.033 654.841 65.7598 654.628 66.3327 654.202C66.9057 653.776 67.1921 653.108 67.1921 652.199V649.983H67.0501C66.927 650.182 66.7518 650.428 66.5245 650.722C66.302 651.01 65.98 651.268 65.5586 651.496C65.1419 651.718 64.5785 651.83 63.8683 651.83C62.9876 651.83 62.1969 651.621 61.4961 651.205C60.8001 650.788 60.2485 650.182 59.8413 649.386C59.4388 648.591 59.2376 647.625 59.2376 646.489C59.2376 645.371 59.4341 644.398 59.8271 643.57C60.2201 642.736 60.7669 642.092 61.4677 641.638C62.1684 641.179 62.9781 640.949 63.8967 640.949C64.6069 640.949 65.1703 641.067 65.587 641.304C66.0084 641.536 66.3304 641.801 66.5529 642.099C66.7802 642.393 66.9554 642.634 67.0785 642.824H67.2489V641.091H68.8683V652.312C68.8683 653.25 68.6552 654.012 68.229 654.599C67.8076 655.191 67.2395 655.625 66.5245 655.899C65.8143 656.179 65.0236 656.318 64.1523 656.318ZM64.0955 650.324C64.7679 650.324 65.3361 650.17 65.8001 649.862C66.2641 649.554 66.6168 649.112 66.8583 648.534C67.0998 647.956 67.2205 647.265 67.2205 646.46C67.2205 645.674 67.1022 644.981 66.8654 644.379C66.6287 643.778 66.2783 643.307 65.8143 642.966C65.3503 642.625 64.7773 642.455 64.0955 642.455C63.3853 642.455 62.7934 642.634 62.32 642.994C61.8512 643.354 61.4985 643.837 61.2617 644.443C61.0297 645.049 60.9137 645.722 60.9137 646.46C60.9137 647.218 61.0321 647.888 61.2688 648.47C61.5103 649.048 61.8654 649.502 62.3342 649.834C62.8076 650.161 63.3948 650.324 64.0955 650.324ZM78.8114 647.54V641.091H80.4876V652H78.8114V650.153H78.6978C78.4421 650.707 78.0444 651.179 77.5046 651.567C76.9648 651.95 76.283 652.142 75.4592 652.142C74.7773 652.142 74.1713 651.993 73.641 651.695C73.1107 651.392 72.694 650.937 72.391 650.331C72.0879 649.72 71.9364 648.951 71.9364 648.023V641.091H73.6126V647.909C73.6126 648.705 73.8351 649.339 74.2802 649.812C74.73 650.286 75.3029 650.523 75.9989 650.523C76.4156 650.523 76.8394 650.416 77.2702 650.203C77.7058 649.99 78.0704 649.663 78.364 649.223C78.6623 648.783 78.8114 648.222 78.8114 647.54ZM85.2337 637.455V652H83.5575V637.455H85.2337ZM91.5138 652.256C90.8226 652.256 90.1952 652.125 89.6317 651.865C89.0683 651.6 88.6209 651.219 88.2894 650.722C87.958 650.22 87.7923 649.614 87.7923 648.903C87.7923 648.278 87.9154 647.772 88.1616 647.384C88.4078 646.991 88.7369 646.683 89.1488 646.46C89.5607 646.238 90.0153 646.072 90.5124 645.963C91.0143 645.849 91.5186 645.759 92.0252 645.693C92.6881 645.608 93.2255 645.544 93.6374 645.501C94.0541 645.454 94.3571 645.376 94.5465 645.267C94.7406 645.158 94.8377 644.969 94.8377 644.699V644.642C94.8377 643.941 94.646 643.397 94.2624 643.009C93.8836 642.62 93.3084 642.426 92.5366 642.426C91.7364 642.426 91.109 642.601 90.6545 642.952C90.1999 643.302 89.8803 643.676 89.6957 644.074L88.1048 643.506C88.3888 642.843 88.7676 642.327 89.2411 641.957C89.7193 641.583 90.2402 641.323 90.8036 641.176C91.3718 641.025 91.9305 640.949 92.4798 640.949C92.8301 640.949 93.2326 640.991 93.6871 641.077C94.1464 641.157 94.5891 641.325 95.0153 641.581C95.4461 641.837 95.8036 642.223 96.0877 642.739C96.3718 643.255 96.5138 643.946 96.5138 644.812V652H94.8377V650.523H94.7525C94.6388 650.759 94.4495 651.013 94.1843 651.283C93.9192 651.553 93.5664 651.782 93.1261 651.972C92.6857 652.161 92.1483 652.256 91.5138 652.256ZM91.7695 650.75C92.4324 650.75 92.9911 650.62 93.4457 650.359C93.9049 650.099 94.2506 649.763 94.4826 649.351C94.7193 648.939 94.8377 648.506 94.8377 648.051V646.517C94.7667 646.602 94.6104 646.68 94.369 646.751C94.1322 646.818 93.8576 646.877 93.5451 646.929C93.2373 646.976 92.9367 647.019 92.6431 647.057C92.3543 647.09 92.1199 647.118 91.94 647.142C91.5044 647.199 91.0972 647.291 90.7184 647.419C90.3443 647.542 90.0413 647.729 89.8093 647.98C89.582 648.226 89.4684 648.562 89.4684 648.989C89.4684 649.571 89.6838 650.011 90.1147 650.31C90.5503 650.603 91.1019 650.75 91.7695 650.75ZM99.5732 652V641.091H101.192V642.739H101.306C101.505 642.199 101.865 641.761 102.386 641.425C102.906 641.089 103.494 640.92 104.147 640.92C104.27 640.92 104.424 640.923 104.609 640.928C104.793 640.932 104.933 640.939 105.028 640.949V642.653C104.971 642.639 104.841 642.618 104.637 642.589C104.438 642.556 104.228 642.54 104.005 642.54C103.475 642.54 103.001 642.651 102.585 642.874C102.173 643.091 101.846 643.394 101.604 643.783C101.368 644.166 101.249 644.604 101.249 645.097V652H99.5732Z" fill="black" />
  <path d="M444.358 649.455L448.676 661.699H448.847L453.165 649.455H455.011L449.67 664H447.852L442.511 649.455H444.358ZM463.925 659.54V653.091H465.601V664H463.925V662.153H463.811C463.555 662.707 463.158 663.179 462.618 663.567C462.078 663.95 461.396 664.142 460.572 664.142C459.891 664.142 459.285 663.993 458.754 663.695C458.224 663.392 457.807 662.937 457.504 662.331C457.201 661.72 457.05 660.951 457.05 660.023V653.091H458.726V659.909C458.726 660.705 458.948 661.339 459.393 661.812C459.843 662.286 460.416 662.523 461.112 662.523C461.529 662.523 461.953 662.416 462.384 662.203C462.819 661.99 463.184 661.663 463.477 661.223C463.776 660.783 463.925 660.222 463.925 659.54ZM473.245 664.227C472.194 664.227 471.287 663.995 470.525 663.531C469.767 663.062 469.182 662.409 468.77 661.571C468.363 660.728 468.159 659.748 468.159 658.631C468.159 657.513 468.363 656.528 468.77 655.676C469.182 654.819 469.755 654.152 470.489 653.673C471.228 653.19 472.089 652.949 473.074 652.949C473.642 652.949 474.203 653.044 474.757 653.233C475.311 653.422 475.816 653.73 476.27 654.156C476.725 654.578 477.087 655.136 477.357 655.832C477.627 656.528 477.762 657.385 477.762 658.403V659.114H469.353V657.665H476.057C476.057 657.049 475.934 656.5 475.688 656.017C475.446 655.534 475.101 655.153 474.651 654.874C474.206 654.594 473.68 654.455 473.074 654.455C472.407 654.455 471.829 654.62 471.341 654.952C470.858 655.278 470.487 655.705 470.226 656.23C469.966 656.756 469.836 657.319 469.836 657.92V658.886C469.836 659.71 469.978 660.409 470.262 660.982C470.551 661.55 470.951 661.983 471.462 662.281C471.973 662.575 472.568 662.722 473.245 662.722C473.685 662.722 474.083 662.66 474.438 662.537C474.798 662.409 475.108 662.22 475.368 661.969C475.629 661.713 475.83 661.396 475.972 661.017L477.591 661.472C477.421 662.021 477.134 662.504 476.732 662.92C476.329 663.332 475.832 663.654 475.24 663.886C474.649 664.114 473.983 664.227 473.245 664.227ZM491.732 649.455H493.493V659.852C493.493 660.78 493.323 661.569 492.982 662.217C492.641 662.866 492.16 663.358 491.54 663.695C490.92 664.031 490.188 664.199 489.346 664.199C488.55 664.199 487.842 664.054 487.222 663.766C486.602 663.472 486.114 663.055 485.759 662.516C485.404 661.976 485.226 661.334 485.226 660.591H486.959C486.959 661.003 487.061 661.363 487.265 661.67C487.473 661.973 487.757 662.21 488.117 662.381C488.477 662.551 488.886 662.636 489.346 662.636C489.852 662.636 490.283 662.53 490.638 662.317C490.993 662.104 491.263 661.791 491.448 661.379C491.637 660.963 491.732 660.454 491.732 659.852V649.455ZM504.978 653.091C504.892 652.371 504.547 651.812 503.941 651.415C503.335 651.017 502.591 650.818 501.711 650.818C501.067 650.818 500.503 650.922 500.02 651.131C499.542 651.339 499.168 651.625 498.898 651.99C498.633 652.355 498.5 652.769 498.5 653.233C498.5 653.621 498.593 653.955 498.777 654.234C498.967 654.509 499.208 654.739 499.502 654.923C499.795 655.103 500.103 655.252 500.425 655.371C500.747 655.484 501.043 655.577 501.313 655.648L502.79 656.045C503.169 656.145 503.59 656.282 504.054 656.457C504.523 656.633 504.971 656.872 505.397 657.175C505.828 657.473 506.183 657.857 506.462 658.325C506.741 658.794 506.881 659.369 506.881 660.051C506.881 660.837 506.675 661.547 506.263 662.182C505.856 662.816 505.259 663.321 504.473 663.695C503.692 664.069 502.743 664.256 501.625 664.256C500.584 664.256 499.682 664.088 498.919 663.751C498.162 663.415 497.565 662.946 497.13 662.345C496.699 661.744 496.455 661.045 496.398 660.25H498.216C498.264 660.799 498.448 661.254 498.77 661.614C499.097 661.969 499.509 662.234 500.006 662.409C500.508 662.58 501.048 662.665 501.625 662.665C502.298 662.665 502.901 662.556 503.436 662.338C503.971 662.116 504.395 661.808 504.708 661.415C505.02 661.017 505.176 660.553 505.176 660.023C505.176 659.54 505.042 659.147 504.772 658.844C504.502 658.541 504.147 658.295 503.706 658.105C503.266 657.916 502.79 657.75 502.279 657.608L500.489 657.097C499.353 656.77 498.453 656.304 497.79 655.697C497.127 655.091 496.796 654.298 496.796 653.318C496.796 652.504 497.016 651.794 497.456 651.188C497.901 650.577 498.498 650.103 499.246 649.767C499.999 649.426 500.839 649.256 501.767 649.256C502.705 649.256 503.538 649.424 504.267 649.76C504.997 650.091 505.574 650.546 506 651.124C506.431 651.701 506.658 652.357 506.682 653.091H504.978Z" fill="black" />
  <path d="M260.679 218.185H258.463C258.378 217.711 258.219 217.295 257.987 216.935C257.755 216.575 257.471 216.269 257.135 216.018C256.799 215.768 256.422 215.578 256.006 215.45C255.594 215.322 255.156 215.259 254.692 215.259C253.854 215.259 253.103 215.469 252.44 215.891C251.782 216.312 251.261 216.93 250.878 217.744C250.499 218.559 250.31 219.553 250.31 220.727C250.31 221.911 250.499 222.91 250.878 223.724C251.261 224.539 251.785 225.154 252.447 225.571C253.11 225.988 253.856 226.196 254.685 226.196C255.144 226.196 255.58 226.134 255.991 226.011C256.408 225.884 256.785 225.696 257.121 225.45C257.457 225.204 257.741 224.903 257.973 224.548C258.21 224.188 258.373 223.777 258.463 223.312L260.679 223.32C260.561 224.035 260.331 224.693 259.99 225.294C259.654 225.891 259.221 226.407 258.69 226.842C258.165 227.273 257.563 227.607 256.886 227.844C256.209 228.08 255.471 228.199 254.67 228.199C253.411 228.199 252.289 227.901 251.304 227.304C250.319 226.703 249.543 225.843 248.974 224.726C248.411 223.608 248.129 222.276 248.129 220.727C248.129 219.174 248.413 217.841 248.982 216.729C249.55 215.611 250.326 214.754 251.311 214.158C252.296 213.556 253.416 213.256 254.67 213.256C255.442 213.256 256.162 213.367 256.83 213.589C257.502 213.807 258.106 214.129 258.641 214.555C259.176 214.977 259.618 215.493 259.969 216.104C260.319 216.71 260.556 217.403 260.679 218.185ZM271.238 217.276C271.163 216.603 270.85 216.082 270.301 215.713C269.752 215.339 269.06 215.152 268.227 215.152C267.63 215.152 267.114 215.247 266.679 215.436C266.243 215.621 265.904 215.876 265.663 216.203C265.426 216.525 265.308 216.892 265.308 217.304C265.308 217.65 265.388 217.948 265.549 218.199C265.715 218.45 265.931 218.661 266.196 218.831C266.466 218.997 266.754 219.136 267.062 219.25C267.37 219.359 267.666 219.449 267.95 219.52L269.37 219.889C269.834 220.003 270.31 220.157 270.798 220.351C271.286 220.545 271.738 220.801 272.154 221.118C272.571 221.435 272.907 221.828 273.163 222.297C273.423 222.766 273.554 223.327 273.554 223.98C273.554 224.804 273.341 225.536 272.914 226.175C272.493 226.814 271.88 227.318 271.075 227.688C270.275 228.057 269.306 228.241 268.17 228.241C267.081 228.241 266.139 228.069 265.343 227.723C264.548 227.377 263.925 226.887 263.475 226.253C263.026 225.614 262.777 224.856 262.73 223.98H264.931C264.974 224.506 265.145 224.944 265.443 225.294C265.746 225.64 266.132 225.898 266.6 226.068C267.074 226.234 267.592 226.317 268.156 226.317C268.776 226.317 269.328 226.22 269.811 226.026C270.298 225.827 270.682 225.552 270.961 225.202C271.241 224.847 271.38 224.432 271.38 223.959C271.38 223.528 271.257 223.175 271.011 222.901C270.77 222.626 270.44 222.399 270.024 222.219C269.612 222.039 269.145 221.88 268.625 221.743L266.906 221.274C265.741 220.957 264.818 220.491 264.136 219.875C263.459 219.259 263.12 218.445 263.12 217.432C263.12 216.594 263.348 215.862 263.802 215.237C264.257 214.612 264.872 214.127 265.649 213.781C266.425 213.431 267.301 213.256 268.277 213.256C269.261 213.256 270.13 213.429 270.883 213.774C271.641 214.12 272.237 214.596 272.673 215.202C273.109 215.803 273.336 216.494 273.355 217.276H271.238ZM284.109 217.276C284.034 216.603 283.721 216.082 283.172 215.713C282.623 215.339 281.931 215.152 281.098 215.152C280.501 215.152 279.985 215.247 279.55 215.436C279.114 215.621 278.776 215.876 278.534 216.203C278.297 216.525 278.179 216.892 278.179 217.304C278.179 217.65 278.259 217.948 278.42 218.199C278.586 218.45 278.802 218.661 279.067 218.831C279.337 218.997 279.625 219.136 279.933 219.25C280.241 219.359 280.537 219.449 280.821 219.52L282.241 219.889C282.705 220.003 283.181 220.157 283.669 220.351C284.157 220.545 284.609 220.801 285.026 221.118C285.442 221.435 285.778 221.828 286.034 222.297C286.295 222.766 286.425 223.327 286.425 223.98C286.425 224.804 286.212 225.536 285.786 226.175C285.364 226.814 284.751 227.318 283.946 227.688C283.146 228.057 282.178 228.241 281.041 228.241C279.952 228.241 279.01 228.069 278.214 227.723C277.419 227.377 276.796 226.887 276.347 226.253C275.897 225.614 275.648 224.856 275.601 223.98H277.803C277.845 224.506 278.016 224.944 278.314 225.294C278.617 225.64 279.003 225.898 279.472 226.068C279.945 226.234 280.464 226.317 281.027 226.317C281.647 226.317 282.199 226.22 282.682 226.026C283.17 225.827 283.553 225.552 283.832 225.202C284.112 224.847 284.251 224.432 284.251 223.959C284.251 223.528 284.128 223.175 283.882 222.901C283.641 222.626 283.312 222.399 282.895 222.219C282.483 222.039 282.017 221.88 281.496 221.743L279.777 221.274C278.612 220.957 277.689 220.491 277.007 219.875C276.33 219.259 275.991 218.445 275.991 217.432C275.991 216.594 276.219 215.862 276.673 215.237C277.128 214.612 277.743 214.127 278.52 213.781C279.296 213.431 280.172 213.256 281.148 213.256C282.133 213.256 283.001 213.429 283.754 213.774C284.512 214.12 285.108 214.596 285.544 215.202C285.98 215.803 286.207 216.494 286.226 217.276H284.109Z" fill="black" />
  <path d="M223.251 407.455H225.439V417.767C225.439 418.7 225.254 419.498 224.885 420.161C224.52 420.823 224.007 421.33 223.344 421.68C222.681 422.026 221.904 422.199 221.014 422.199C220.195 422.199 219.459 422.05 218.805 421.751C218.157 421.453 217.643 421.02 217.264 420.452C216.89 419.879 216.703 419.183 216.703 418.364H218.884C218.884 418.766 218.976 419.114 219.161 419.408C219.35 419.701 219.608 419.931 219.935 420.097C220.266 420.258 220.645 420.338 221.071 420.338C221.535 420.338 221.928 420.241 222.25 420.047C222.577 419.848 222.825 419.557 222.996 419.173C223.166 418.79 223.251 418.321 223.251 417.767V407.455ZM231.637 422.241C230.946 422.241 230.321 422.114 229.762 421.858C229.204 421.598 228.761 421.221 228.434 420.729C228.112 420.236 227.951 419.633 227.951 418.918C227.951 418.302 228.07 417.795 228.306 417.398C228.543 417 228.863 416.685 229.265 416.453C229.668 416.221 230.118 416.046 230.615 415.928C231.112 415.809 231.618 415.719 232.135 415.658C232.788 415.582 233.318 415.52 233.725 415.473C234.133 415.421 234.429 415.338 234.613 415.224C234.798 415.111 234.89 414.926 234.89 414.67V414.621C234.89 414 234.715 413.52 234.365 413.179C234.019 412.838 233.503 412.668 232.816 412.668C232.101 412.668 231.538 412.826 231.126 413.143C230.719 413.456 230.437 413.804 230.281 414.188L228.285 413.733C228.522 413.07 228.868 412.535 229.322 412.128C229.781 411.716 230.309 411.418 230.906 411.233C231.502 411.044 232.13 410.949 232.788 410.949C233.224 410.949 233.685 411.001 234.173 411.105C234.665 411.205 235.125 411.389 235.551 411.659C235.982 411.929 236.334 412.315 236.609 412.817C236.884 413.314 237.021 413.96 237.021 414.756V422H234.947V420.509H234.862C234.725 420.783 234.519 421.053 234.244 421.318C233.969 421.583 233.617 421.804 233.186 421.979C232.755 422.154 232.239 422.241 231.637 422.241ZM232.099 420.537C232.686 420.537 233.188 420.421 233.605 420.189C234.026 419.957 234.346 419.654 234.564 419.28C234.786 418.901 234.897 418.496 234.897 418.065V416.659C234.822 416.735 234.675 416.806 234.457 416.872C234.244 416.934 234 416.988 233.725 417.036C233.451 417.078 233.183 417.118 232.923 417.156C232.663 417.189 232.445 417.218 232.27 417.241C231.858 417.294 231.481 417.381 231.14 417.504C230.804 417.627 230.534 417.805 230.331 418.037C230.132 418.264 230.032 418.567 230.032 418.946C230.032 419.472 230.226 419.869 230.615 420.139C231.003 420.404 231.498 420.537 232.099 420.537ZM248.791 411.091L244.835 422H242.562L238.599 411.091H240.879L243.642 419.486H243.756L246.511 411.091H248.791ZM253.649 422.241C252.958 422.241 252.333 422.114 251.774 421.858C251.215 421.598 250.773 421.221 250.446 420.729C250.124 420.236 249.963 419.633 249.963 418.918C249.963 418.302 250.081 417.795 250.318 417.398C250.555 417 250.875 416.685 251.277 416.453C251.679 416.221 252.129 416.046 252.626 415.928C253.124 415.809 253.63 415.719 254.146 415.658C254.8 415.582 255.33 415.52 255.737 415.473C256.144 415.421 256.44 415.338 256.625 415.224C256.81 415.111 256.902 414.926 256.902 414.67V414.621C256.902 414 256.727 413.52 256.376 413.179C256.031 412.838 255.515 412.668 254.828 412.668C254.113 412.668 253.55 412.826 253.138 413.143C252.731 413.456 252.449 413.804 252.293 414.188L250.297 413.733C250.534 413.07 250.879 412.535 251.334 412.128C251.793 411.716 252.321 411.418 252.918 411.233C253.514 411.044 254.142 410.949 254.8 410.949C255.235 410.949 255.697 411.001 256.185 411.105C256.677 411.205 257.136 411.389 257.562 411.659C257.993 411.929 258.346 412.315 258.621 412.817C258.895 413.314 259.033 413.96 259.033 414.756V422H256.959V420.509H256.874C256.736 420.783 256.53 421.053 256.256 421.318C255.981 421.583 255.628 421.804 255.197 421.979C254.767 422.154 254.25 422.241 253.649 422.241ZM254.111 420.537C254.698 420.537 255.2 420.421 255.616 420.189C256.038 419.957 256.357 419.654 256.575 419.28C256.798 418.901 256.909 418.496 256.909 418.065V416.659C256.833 416.735 256.687 416.806 256.469 416.872C256.256 416.934 256.012 416.988 255.737 417.036C255.463 417.078 255.195 417.118 254.935 417.156C254.674 417.189 254.456 417.218 254.281 417.241C253.869 417.294 253.493 417.381 253.152 417.504C252.816 417.627 252.546 417.805 252.342 418.037C252.143 418.264 252.044 418.567 252.044 418.946C252.044 419.472 252.238 419.869 252.626 420.139C253.015 420.404 253.509 420.537 254.111 420.537ZM275.258 411.276C275.182 410.603 274.87 410.082 274.32 409.713C273.771 409.339 273.08 409.152 272.246 409.152C271.65 409.152 271.134 409.247 270.698 409.436C270.263 409.621 269.924 409.876 269.683 410.203C269.446 410.525 269.327 410.892 269.327 411.304C269.327 411.65 269.408 411.948 269.569 412.199C269.735 412.45 269.95 412.661 270.215 412.831C270.485 412.997 270.774 413.136 271.082 413.25C271.389 413.359 271.685 413.449 271.969 413.52L273.39 413.889C273.854 414.003 274.33 414.157 274.817 414.351C275.305 414.545 275.757 414.801 276.174 415.118C276.591 415.435 276.927 415.828 277.183 416.297C277.443 416.766 277.573 417.327 277.573 417.98C277.573 418.804 277.36 419.536 276.934 420.175C276.513 420.814 275.899 421.318 275.094 421.688C274.294 422.057 273.326 422.241 272.19 422.241C271.101 422.241 270.158 422.069 269.363 421.723C268.567 421.377 267.945 420.887 267.495 420.253C267.045 419.614 266.797 418.856 266.749 417.98H268.951C268.994 418.506 269.164 418.944 269.462 419.294C269.765 419.64 270.151 419.898 270.62 420.068C271.094 420.234 271.612 420.317 272.175 420.317C272.796 420.317 273.347 420.22 273.83 420.026C274.318 419.827 274.701 419.552 274.981 419.202C275.26 418.847 275.4 418.432 275.4 417.959C275.4 417.528 275.277 417.175 275.031 416.901C274.789 416.626 274.46 416.399 274.043 416.219C273.631 416.039 273.165 415.88 272.644 415.743L270.925 415.274C269.761 414.957 268.837 414.491 268.156 413.875C267.478 413.259 267.14 412.445 267.14 411.432C267.14 410.594 267.367 409.862 267.822 409.237C268.276 408.612 268.892 408.127 269.668 407.781C270.445 407.431 271.321 407.256 272.296 407.256C273.281 407.256 274.15 407.429 274.903 407.774C275.66 408.12 276.257 408.596 276.692 409.202C277.128 409.803 277.355 410.494 277.374 411.276H275.258ZM284.62 422.22C283.565 422.22 282.655 421.981 281.893 421.503C281.136 421.02 280.553 420.355 280.146 419.507C279.739 418.66 279.535 417.689 279.535 416.595C279.535 415.487 279.743 414.509 280.16 413.662C280.577 412.81 281.164 412.144 281.922 411.666C282.679 411.188 283.572 410.949 284.599 410.949C285.428 410.949 286.166 411.103 286.815 411.411C287.464 411.714 287.987 412.14 288.385 412.689C288.787 413.238 289.026 413.88 289.102 414.614H287.035C286.922 414.102 286.661 413.662 286.254 413.293C285.851 412.923 285.312 412.739 284.635 412.739C284.043 412.739 283.524 412.895 283.079 413.207C282.639 413.515 282.296 413.955 282.049 414.528C281.803 415.097 281.68 415.769 281.68 416.545C281.68 417.341 281.801 418.027 282.042 418.605C282.284 419.183 282.625 419.63 283.065 419.947C283.51 420.265 284.033 420.423 284.635 420.423C285.037 420.423 285.402 420.35 285.728 420.203C286.06 420.052 286.337 419.836 286.559 419.557C286.787 419.277 286.945 418.941 287.035 418.548H289.102C289.026 419.254 288.797 419.884 288.413 420.438C288.029 420.991 287.516 421.427 286.872 421.744C286.233 422.062 285.482 422.22 284.62 422.22ZM291.373 422V411.091H293.425V412.824H293.539C293.738 412.237 294.088 411.775 294.59 411.439C295.097 411.098 295.67 410.928 296.309 410.928C296.442 410.928 296.598 410.932 296.778 410.942C296.962 410.951 297.107 410.963 297.211 410.977V413.009C297.126 412.985 296.974 412.959 296.756 412.93C296.539 412.897 296.321 412.881 296.103 412.881C295.601 412.881 295.154 412.987 294.761 413.2C294.372 413.409 294.065 413.7 293.837 414.074C293.61 414.443 293.496 414.865 293.496 415.338V422H291.373ZM299.049 422V411.091H301.172V422H299.049ZM300.121 409.408C299.752 409.408 299.435 409.285 299.169 409.038C298.909 408.787 298.779 408.489 298.779 408.143C298.779 407.793 298.909 407.495 299.169 407.249C299.435 406.998 299.752 406.872 300.121 406.872C300.49 406.872 300.805 406.998 301.066 407.249C301.331 407.495 301.463 407.793 301.463 408.143C301.463 408.489 301.331 408.787 301.066 409.038C300.805 409.285 300.49 409.408 300.121 409.408ZM304.029 426.091V411.091H306.103V412.859H306.281C306.404 412.632 306.581 412.369 306.813 412.071C307.045 411.773 307.367 411.512 307.779 411.29C308.191 411.062 308.736 410.949 309.413 410.949C310.293 410.949 311.079 411.171 311.771 411.616C312.462 412.062 313.004 412.703 313.397 413.541C313.795 414.379 313.994 415.388 313.994 416.567C313.994 417.746 313.797 418.757 313.404 419.599C313.011 420.437 312.471 421.084 311.785 421.538C311.098 421.988 310.315 422.213 309.434 422.213C308.771 422.213 308.229 422.102 307.808 421.879C307.391 421.657 307.064 421.396 306.827 421.098C306.591 420.8 306.408 420.535 306.281 420.303H306.153V426.091H304.029ZM306.11 416.545C306.11 417.312 306.221 417.985 306.444 418.562C306.666 419.14 306.988 419.592 307.41 419.919C307.831 420.241 308.347 420.402 308.958 420.402C309.593 420.402 310.123 420.234 310.549 419.898C310.975 419.557 311.297 419.095 311.515 418.513C311.737 417.93 311.849 417.275 311.849 416.545C311.849 415.826 311.74 415.179 311.522 414.607C311.309 414.034 310.987 413.581 310.556 413.25C310.13 412.919 309.597 412.753 308.958 412.753C308.343 412.753 307.822 412.911 307.396 413.229C306.974 413.546 306.655 413.989 306.437 414.557C306.219 415.125 306.11 415.788 306.11 416.545ZM321.465 411.091V412.795H315.506V411.091H321.465ZM317.104 408.477H319.228V418.797C319.228 419.209 319.29 419.519 319.413 419.727C319.536 419.931 319.694 420.071 319.888 420.146C320.087 420.217 320.303 420.253 320.535 420.253C320.705 420.253 320.854 420.241 320.982 420.217C321.11 420.194 321.21 420.175 321.281 420.161L321.664 421.915C321.541 421.962 321.366 422.009 321.138 422.057C320.911 422.109 320.627 422.137 320.286 422.142C319.728 422.152 319.207 422.052 318.724 421.844C318.241 421.635 317.85 421.313 317.552 420.878C317.254 420.442 317.104 419.895 317.104 419.237V408.477Z" fill="black" />
</svg>